<svg width="238" height="64" viewBox="0 0 238 64" fill="none" xmlns="http://www.w3.org/2000/svg">
<path d="M72.195 44V23.232H65.795V20.608H81.475V23.232H75.075V44H72.195ZM87.6705 44.32C85.6438 44.32 84.0225 43.7227 82.8065 42.528C81.5905 41.312 80.9825 39.6693 80.9825 37.6V26.4H83.8625V37.6C83.8625 38.9227 84.2038 39.9573 84.8865 40.704C85.5692 41.4293 86.4972 41.792 87.6705 41.792C88.8652 41.792 89.8038 41.4293 90.4865 40.704C91.1905 39.9573 91.5425 38.9227 91.5425 37.6V26.4H94.4225V37.6C94.4225 39.6693 93.8038 41.312 92.5665 42.528C91.3292 43.7227 89.6972 44.32 87.6705 44.32ZM95.722 44V26.4H98.538V29.76H99.21L98.282 31.84C98.282 29.9413 98.6873 28.512 99.498 27.552C100.33 26.5707 101.557 26.08 103.178 26.08C105.034 26.08 106.506 26.6667 107.594 27.84C108.703 28.992 109.258 30.56 109.258 32.544V33.6H106.378V32.8C106.378 31.4133 106.037 30.3573 105.354 29.632C104.693 28.8853 103.743 28.512 102.506 28.512C101.29 28.512 100.33 28.8853 99.626 29.632C98.9433 30.3787 98.602 31.4347 98.602 32.8V44H95.722ZM116.861 44.32C115.411 44.32 114.248 43.936 113.373 43.168C112.499 42.3787 112.061 41.312 112.061 39.968L112.637 40.64H112.061V44H109.181V20.64H112.061V25.76L111.997 29.76H112.637L112.061 30.432C112.061 29.1093 112.499 28.0533 113.373 27.264C114.269 26.4747 115.432 26.08 116.861 26.08C118.632 26.08 120.051 26.6667 121.117 27.84C122.184 29.0133 122.717 30.6133 122.717 32.64V37.792C122.717 39.7973 122.184 41.3867 121.117 42.56C120.051 43.7333 118.632 44.32 116.861 44.32ZM115.901 41.824C117.117 41.824 118.077 41.4613 118.781 40.736C119.485 40.0107 119.837 38.9653 119.837 37.6V32.8C119.837 31.4347 119.485 30.3893 118.781 29.664C118.077 28.9387 117.117 28.576 115.901 28.576C114.728 28.576 113.789 28.9493 113.085 29.696C112.403 30.4427 112.061 31.4773 112.061 32.8V37.6C112.061 38.9227 112.403 39.9573 113.085 40.704C113.789 41.4507 114.728 41.824 115.901 41.824ZM129.905 44.256C128.497 44.256 127.281 43.9893 126.257 43.456C125.233 42.9227 124.433 42.1547 123.857 41.152C123.302 40.128 123.025 38.9227 123.025 37.536V32.864C123.025 31.456 123.302 30.2507 123.857 29.248C124.433 28.2453 125.233 27.4773 126.257 26.944C127.281 26.4107 128.497 26.144 129.905 26.144C131.313 26.144 132.529 26.4107 133.553 26.944C134.577 27.4773 135.366 28.2453 135.921 29.248C136.497 30.2507 136.785 31.4453 136.785 32.832V37.536C136.785 38.9227 136.497 40.128 135.921 41.152C135.366 42.1547 134.577 42.9227 133.553 43.456C132.529 43.9893 131.313 44.256 129.905 44.256ZM129.905 41.696C131.164 41.696 132.145 41.344 132.849 40.64C133.553 39.936 133.905 38.9013 133.905 37.536V32.864C133.905 31.4987 133.553 30.464 132.849 29.76C132.145 29.056 131.164 28.704 129.905 28.704C128.668 28.704 127.686 29.056 126.961 29.76C126.257 30.464 125.905 31.4987 125.905 32.864V37.536C125.905 38.9013 126.257 39.936 126.961 40.64C127.686 41.344 128.668 41.696 129.905 41.696ZM144.1 44.32C142.692 44.32 141.466 44.0533 140.42 43.52C139.396 42.9867 138.596 42.2187 138.02 41.216C137.466 40.192 137.188 38.9867 137.188 37.6V27.04C137.188 25.632 137.466 24.4267 138.02 23.424C138.596 22.4213 139.396 21.6533 140.42 21.12C141.466 20.5867 142.692 20.32 144.1 20.32C145.508 20.32 146.724 20.5973 147.748 21.152C148.772 21.6853 149.562 22.4533 150.116 23.456C150.671 24.4587 150.948 25.6533 150.948 27.04H148.068C148.068 25.7173 147.716 24.704 147.012 24C146.33 23.2747 145.359 22.912 144.1 22.912C142.842 22.912 141.85 23.264 141.124 23.968C140.42 24.672 140.068 25.6853 140.068 27.008V37.6C140.068 38.9227 140.42 39.9467 141.124 40.672C141.85 41.376 142.842 41.728 144.1 41.728C145.359 41.728 146.33 41.376 147.012 40.672C147.716 39.9467 148.068 38.9227 148.068 37.6H150.948C150.948 38.9653 150.671 40.16 150.116 41.184C149.562 42.1867 148.772 42.9653 147.748 43.52C146.724 44.0533 145.508 44.32 144.1 44.32ZM158.04 44.256C156.632 44.256 155.416 43.9893 154.392 43.456C153.368 42.9227 152.568 42.1547 151.992 41.152C151.437 40.128 151.16 38.9227 151.16 37.536V32.864C151.16 31.456 151.437 30.2507 151.992 29.248C152.568 28.2453 153.368 27.4773 154.392 26.944C155.416 26.4107 156.632 26.144 158.04 26.144C159.448 26.144 160.664 26.4107 161.688 26.944C162.712 27.4773 163.501 28.2453 164.056 29.248C164.632 30.2507 164.92 31.4453 164.92 32.832V37.536C164.92 38.9227 164.632 40.128 164.056 41.152C163.501 42.1547 162.712 42.9227 161.688 43.456C160.664 43.9893 159.448 44.256 158.04 44.256ZM158.04 41.696C159.299 41.696 160.28 41.344 160.984 40.64C161.688 39.936 162.04 38.9013 162.04 37.536V32.864C162.04 31.4987 161.688 30.464 160.984 29.76C160.28 29.056 159.299 28.704 158.04 28.704C156.803 28.704 155.821 29.056 155.096 29.76C154.392 30.464 154.04 31.4987 154.04 32.864V37.536C154.04 38.9013 154.392 39.936 155.096 40.64C155.821 41.344 156.803 41.696 158.04 41.696ZM165.451 44V26.4H168.332V29.76H168.939L168.332 30.432C168.332 29.0453 168.748 27.9787 169.58 27.232C170.412 26.464 171.564 26.08 173.036 26.08C174.806 26.08 176.214 26.624 177.26 27.712C178.305 28.8 178.828 30.2827 178.828 32.16V44H175.948V32.48C175.948 31.2213 175.606 30.2613 174.924 29.6C174.262 28.9173 173.356 28.576 172.203 28.576C171.009 28.576 170.06 28.9387 169.356 29.664C168.673 30.3893 168.332 31.4347 168.332 32.8V44H165.451ZM179.519 44V26.4H182.399V29.76H183.007L182.399 30.432C182.399 29.0453 182.815 27.9787 183.647 27.232C184.479 26.464 185.631 26.08 187.103 26.08C188.874 26.08 190.282 26.624 191.327 27.712C192.372 28.8 192.895 30.2827 192.895 32.16V44H190.015V32.48C190.015 31.2213 189.674 30.2613 188.991 29.6C188.33 28.9173 187.423 28.576 186.271 28.576C185.076 28.576 184.127 28.9387 183.423 29.664C182.74 30.3893 182.399 31.4347 182.399 32.8V44H179.519ZM200.242 44.32C198.856 44.32 197.64 44.0427 196.594 43.488C195.57 42.9333 194.77 42.1547 194.194 41.152C193.64 40.128 193.362 38.944 193.362 37.6V32.8C193.362 31.4347 193.64 30.2507 194.194 29.248C194.77 28.2453 195.57 27.4667 196.594 26.912C197.64 26.3573 198.856 26.08 200.242 26.08C201.629 26.08 202.834 26.3573 203.858 26.912C204.904 27.4667 205.704 28.2453 206.258 29.248C206.834 30.2507 207.122 31.4347 207.122 32.8V35.904H196.178V37.6C196.178 38.9867 196.53 40.0533 197.234 40.8C197.938 41.5253 198.941 41.888 200.242 41.888C201.352 41.888 202.248 41.696 202.93 41.312C203.613 40.9067 204.029 40.3093 204.178 39.52H207.058C206.866 40.992 206.141 42.1653 204.882 43.04C203.645 43.8933 202.098 44.32 200.242 44.32ZM204.306 33.984V32.8C204.306 31.4133 203.954 30.3467 203.25 29.6C202.568 28.8533 201.565 28.48 200.242 28.48C198.941 28.48 197.938 28.8533 197.234 29.6C196.53 30.3467 196.178 31.4133 196.178 32.8V33.728H204.53L204.306 33.984ZM214.438 44.32C213.03 44.32 211.793 44.0533 210.726 43.52C209.681 42.9867 208.87 42.2187 208.294 41.216C207.718 40.192 207.43 38.9867 207.43 37.6V32.8C207.43 31.392 207.718 30.1867 208.294 29.184C208.87 28.1813 209.681 27.4133 210.726 26.88C211.793 26.3467 213.03 26.08 214.438 26.08C216.465 26.08 218.097 26.624 219.334 27.712C220.571 28.8 221.222 30.2827 221.286 32.16H218.406C218.342 31.0293 217.958 30.1653 217.254 29.568C216.571 28.9493 215.633 28.64 214.438 28.64C213.179 28.64 212.177 29.0027 211.43 29.728C210.683 30.432 210.31 31.4453 210.31 32.768V37.6C210.31 38.9227 210.683 39.9467 211.43 40.672C212.177 41.3973 213.179 41.76 214.438 41.76C215.633 41.76 216.571 41.4507 217.254 40.832C217.958 40.2133 218.342 39.3493 218.406 38.24H221.286C221.222 40.1173 220.571 41.6 219.334 42.688C218.097 43.776 216.465 44.32 214.438 44.32ZM230.297 44C228.783 44 227.599 43.5947 226.745 42.784C225.913 41.9733 225.497 40.832 225.497 39.36V29.024H220.537V26.4H225.497V21.44H228.377V26.4H235.417V29.024H228.377V39.36C228.377 40.704 229.017 41.376 230.297 41.376H235.097V44H230.297Z" fill="url(#paint0_linear_874_8)"/>
<rect width="64" height="64" rx="8" fill="url(#paint1_linear_874_8)"/>
<path d="M0 12.8C0 8.31958 0 6.07937 0.871948 4.36808C1.63893 2.86278 2.86278 1.63893 4.36808 0.871948C6.07937 0 8.31958 0 12.8 0H51.2C55.6804 0 57.9206 0 59.6319 0.871948C61.1372 1.63893 62.3611 2.86278 63.1281 4.36808C64 6.07937 64 8.31958 64 12.8V51.2C64 55.6804 64 57.9206 63.1281 59.6319C62.3611 61.1372 61.1372 62.3611 59.6319 63.1281C57.9206 64 55.6804 64 51.2 64H12.8C8.31958 64 6.07937 64 4.36808 63.1281C2.86278 62.3611 1.63893 61.1372 0.871948 59.6319C0 57.9206 0 55.6804 0 51.2V12.8Z" fill="url(#paint2_radial_874_8)" fill-opacity="0.5"/>
<g filter="url(#filter0_i_874_8)">
<path d="M16 33.1108C16 24.4585 23.3646 18.6043 32 19.144C40.6355 18.6043 48 24.4585 48 33.1108V34.144C48 42.4283 41.2843 49.144 33 49.144H31C22.7158 49.144 16 42.4283 16 34.144V33.1108Z" fill="url(#paint3_linear_874_8)"/>
<path fill-rule="evenodd" clip-rule="evenodd" d="M37 19.6439C37 19.6439 50 11.644 50.5 16.644C51 21.644 47 28.6439 47 28.6439L37 19.6439Z" fill="url(#paint4_linear_874_8)"/>
<path d="M14.0433 16.644C14.5433 11.644 27.5433 19.6439 27.5433 19.6439L17.5433 28.6439C17.5433 28.6439 13.5433 21.6439 14.0433 16.644Z" fill="url(#paint5_linear_874_8)"/>
</g>
<defs>
<filter id="filter0_i_874_8" x="14" y="15" width="36.5433" height="36.144" filterUnits="userSpaceOnUse" color-interpolation-filters="sRGB">
<feFlood flood-opacity="0" result="BackgroundImageFix"/>
<feBlend mode="normal" in="SourceGraphic" in2="BackgroundImageFix" result="shape"/>
<feColorMatrix in="SourceAlpha" type="matrix" values="0 0 0 0 0 0 0 0 0 0 0 0 0 0 0 0 0 0 127 0" result="hardAlpha"/>
<feOffset dy="2"/>
<feGaussianBlur stdDeviation="2"/>
<feComposite in2="hardAlpha" operator="arithmetic" k2="-1" k3="1"/>
<feColorMatrix type="matrix" values="0 0 0 0 0.211765 0 0 0 0 0.0745098 0 0 0 0 0.505882 0 0 0 0.75 0"/>
<feBlend mode="normal" in2="shape" result="effect1_innerShadow_874_8"/>
</filter>
<linearGradient id="paint0_linear_874_8" x1="151" y1="11" x2="151" y2="53" gradientUnits="userSpaceOnUse">
<stop offset="0.5" stop-color="white"/>
<stop offset="1" stop-color="#D494DE"/>
</linearGradient>
<linearGradient id="paint1_linear_874_8" x1="32" y1="9.53674e-07" x2="64" y2="64" gradientUnits="userSpaceOnUse">
<stop stop-color="#D4B5FF"/>
<stop offset="1" stop-color="#5022AA"/>
</linearGradient>
<radialGradient id="paint2_radial_874_8" cx="0" cy="0" r="1" gradientUnits="userSpaceOnUse" gradientTransform="translate(64 1.78255e-06) rotate(90) scale(64)">
<stop stop-color="#C0B5FF"/>
<stop offset="1" stop-color="#C0B5FF" stop-opacity="0"/>
</radialGradient>
<linearGradient id="paint3_linear_874_8" x1="32" y1="33.1441" x2="32" y2="64" gradientUnits="userSpaceOnUse">
<stop stop-color="#583C99"/>
<stop offset="0.8" stop-color="#9C4DD2"/>
</linearGradient>
<linearGradient id="paint4_linear_874_8" x1="32" y1="33.1441" x2="32" y2="64" gradientUnits="userSpaceOnUse">
<stop stop-color="#583C99"/>
<stop offset="0.8" stop-color="#9C4DD2"/>
</linearGradient>
<linearGradient id="paint5_linear_874_8" x1="32" y1="33.1441" x2="32" y2="64" gradientUnits="userSpaceOnUse">
<stop stop-color="#583C99"/>
<stop offset="0.8" stop-color="#9C4DD2"/>
</linearGradient>
</defs>
</svg>
