<svg width="281" height="64" viewBox="0 0 281 64" fill="none" xmlns="http://www.w3.org/2000/svg">
<path d="M73.4937 47V21.04H65.4937V17.76H85.0937V21.04H77.0937V47H73.4937ZM92.8381 47.4C90.3048 47.4 88.2781 46.6533 86.7581 45.16C85.2381 43.64 84.4781 41.5867 84.4781 39V25H88.0781V39C88.0781 40.6533 88.5048 41.9467 89.3581 42.88C90.2115 43.7867 91.3715 44.24 92.8381 44.24C94.3315 44.24 95.5048 43.7867 96.3581 42.88C97.2381 41.9467 97.6781 40.6533 97.6781 39V25H101.278V39C101.278 41.5867 100.505 43.64 98.9581 45.16C97.4115 46.6533 95.3715 47.4 92.8381 47.4ZM102.902 47V25H106.422V29.2H107.262L106.102 31.8C106.102 29.4267 106.609 27.64 107.622 26.44C108.662 25.2133 110.196 24.6 112.222 24.6C114.542 24.6 116.382 25.3333 117.742 26.8C119.129 28.24 119.822 30.2 119.822 32.68V34H116.222V33C116.222 31.2667 115.796 29.9467 114.942 29.04C114.116 28.1067 112.929 27.64 111.382 27.64C109.862 27.64 108.662 28.1067 107.782 29.04C106.929 29.9733 106.502 31.2933 106.502 33V47H102.902ZM129.327 47.4C127.514 47.4 126.06 46.92 124.967 45.96C123.874 44.9733 123.327 43.64 123.327 41.96L124.047 42.8H123.327V47H119.727V17.8H123.327V24.2L123.247 29.2H124.047L123.327 30.04C123.327 28.3867 123.874 27.0667 124.967 26.08C126.087 25.0933 127.54 24.6 129.327 24.6C131.54 24.6 133.314 25.3333 134.647 26.8C135.98 28.2667 136.647 30.2667 136.647 32.8V39.24C136.647 41.7467 135.98 43.7333 134.647 45.2C133.314 46.6667 131.54 47.4 129.327 47.4ZM128.127 44.28C129.647 44.28 130.847 43.8267 131.727 42.92C132.607 42.0133 133.047 40.7067 133.047 39V33C133.047 31.2933 132.607 29.9867 131.727 29.08C130.847 28.1733 129.647 27.72 128.127 27.72C126.66 27.72 125.487 28.1867 124.607 29.12C123.754 30.0533 123.327 31.3467 123.327 33V39C123.327 40.6533 123.754 41.9467 124.607 42.88C125.487 43.8133 126.66 44.28 128.127 44.28ZM145.631 47.32C143.871 47.32 142.351 46.9867 141.071 46.32C139.791 45.6533 138.791 44.6933 138.071 43.44C137.378 42.16 137.031 40.6533 137.031 38.92V33.08C137.031 31.32 137.378 29.8133 138.071 28.56C138.791 27.3067 139.791 26.3467 141.071 25.68C142.351 25.0133 143.871 24.68 145.631 24.68C147.391 24.68 148.911 25.0133 150.191 25.68C151.471 26.3467 152.458 27.3067 153.151 28.56C153.871 29.8133 154.231 31.3067 154.231 33.04V38.92C154.231 40.6533 153.871 42.16 153.151 43.44C152.458 44.6933 151.471 45.6533 150.191 46.32C148.911 46.9867 147.391 47.32 145.631 47.32ZM145.631 44.12C147.205 44.12 148.431 43.68 149.311 42.8C150.191 41.92 150.631 40.6267 150.631 38.92V33.08C150.631 31.3733 150.191 30.08 149.311 29.2C148.431 28.32 147.205 27.88 145.631 27.88C144.085 27.88 142.858 28.32 141.951 29.2C141.071 30.08 140.631 31.3733 140.631 33.08V38.92C140.631 40.6267 141.071 41.92 141.951 42.8C142.858 43.68 144.085 44.12 145.631 44.12ZM163.376 47.4C161.616 47.4 160.082 47.0667 158.776 46.4C157.496 45.7333 156.496 44.7733 155.776 43.52C155.082 42.24 154.736 40.7333 154.736 39V25.8C154.736 24.04 155.082 22.5333 155.776 21.28C156.496 20.0267 157.496 19.0667 158.776 18.4C160.082 17.7333 161.616 17.4 163.376 17.4C165.136 17.4 166.656 17.7467 167.936 18.44C169.216 19.1067 170.202 20.0667 170.896 21.32C171.589 22.5733 171.936 24.0667 171.936 25.8H168.336C168.336 24.1467 167.896 22.88 167.016 22C166.162 21.0933 164.949 20.64 163.376 20.64C161.802 20.64 160.562 21.08 159.656 21.96C158.776 22.84 158.336 24.1067 158.336 25.76V39C158.336 40.6533 158.776 41.9333 159.656 42.84C160.562 43.72 161.802 44.16 163.376 44.16C164.949 44.16 166.162 43.72 167.016 42.84C167.896 41.9333 168.336 40.6533 168.336 39H171.936C171.936 40.7067 171.589 42.2 170.896 43.48C170.202 44.7333 169.216 45.7067 167.936 46.4C166.656 47.0667 165.136 47.4 163.376 47.4ZM180.8 47.32C179.04 47.32 177.52 46.9867 176.24 46.32C174.96 45.6533 173.96 44.6933 173.24 43.44C172.547 42.16 172.2 40.6533 172.2 38.92V33.08C172.2 31.32 172.547 29.8133 173.24 28.56C173.96 27.3067 174.96 26.3467 176.24 25.68C177.52 25.0133 179.04 24.68 180.8 24.68C182.56 24.68 184.08 25.0133 185.36 25.68C186.64 26.3467 187.627 27.3067 188.32 28.56C189.04 29.8133 189.4 31.3067 189.4 33.04V38.92C189.4 40.6533 189.04 42.16 188.32 43.44C187.627 44.6933 186.64 45.6533 185.36 46.32C184.08 46.9867 182.56 47.32 180.8 47.32ZM180.8 44.12C182.373 44.12 183.6 43.68 184.48 42.8C185.36 41.92 185.8 40.6267 185.8 38.92V33.08C185.8 31.3733 185.36 30.08 184.48 29.2C183.6 28.32 182.373 27.88 180.8 27.88C179.253 27.88 178.027 28.32 177.12 29.2C176.24 30.08 175.8 31.3733 175.8 33.08V38.92C175.8 40.6267 176.24 41.92 177.12 42.8C178.027 43.68 179.253 44.12 180.8 44.12ZM190.064 47V25H193.664V29.2H194.424L193.664 30.04C193.664 28.3067 194.184 26.9733 195.224 26.04C196.264 25.08 197.704 24.6 199.544 24.6C201.758 24.6 203.518 25.28 204.824 26.64C206.131 28 206.784 29.8533 206.784 32.2V47H203.184V32.6C203.184 31.0267 202.758 29.8267 201.904 29C201.078 28.1467 199.944 27.72 198.504 27.72C197.011 27.72 195.824 28.1733 194.944 29.08C194.091 29.9867 193.664 31.2933 193.664 33V47H190.064ZM207.649 47V25H211.249V29.2H212.009L211.249 30.04C211.249 28.3067 211.769 26.9733 212.809 26.04C213.849 25.08 215.289 24.6 217.129 24.6C219.342 24.6 221.102 25.28 222.409 26.64C223.715 28 224.369 29.8533 224.369 32.2V47H220.769V32.6C220.769 31.0267 220.342 29.8267 219.489 29C218.662 28.1467 217.529 27.72 216.089 27.72C214.595 27.72 213.409 28.1733 212.529 29.08C211.675 29.9867 211.249 31.2933 211.249 33V47H207.649ZM233.553 47.4C231.82 47.4 230.3 47.0533 228.993 46.36C227.713 45.6667 226.713 44.6933 225.993 43.44C225.3 42.16 224.953 40.68 224.953 39V33C224.953 31.2933 225.3 29.8133 225.993 28.56C226.713 27.3067 227.713 26.3333 228.993 25.64C230.3 24.9467 231.82 24.6 233.553 24.6C235.286 24.6 236.793 24.9467 238.073 25.64C239.38 26.3333 240.38 27.3067 241.073 28.56C241.793 29.8133 242.153 31.2933 242.153 33V36.88H228.473V39C228.473 40.7333 228.913 42.0667 229.793 43C230.673 43.9067 231.926 44.36 233.553 44.36C234.94 44.36 236.06 44.12 236.913 43.64C237.766 43.1333 238.286 42.3867 238.473 41.4H242.073C241.833 43.24 240.926 44.7067 239.353 45.8C237.806 46.8667 235.873 47.4 233.553 47.4ZM238.633 34.48V33C238.633 31.2667 238.193 29.9333 237.313 29C236.46 28.0667 235.206 27.6 233.553 27.6C231.926 27.6 230.673 28.0667 229.793 29C228.913 29.9333 228.473 31.2667 228.473 33V34.16H238.913L238.633 34.48ZM251.297 47.4C249.537 47.4 247.991 47.0667 246.657 46.4C245.351 45.7333 244.337 44.7733 243.617 43.52C242.897 42.24 242.537 40.7333 242.537 39V33C242.537 31.24 242.897 29.7333 243.617 28.48C244.337 27.2267 245.351 26.2667 246.657 25.6C247.991 24.9333 249.537 24.6 251.297 24.6C253.831 24.6 255.871 25.28 257.417 26.64C258.964 28 259.777 29.8533 259.857 32.2H256.257C256.177 30.7867 255.697 29.7067 254.817 28.96C253.964 28.1867 252.791 27.8 251.297 27.8C249.724 27.8 248.471 28.2533 247.537 29.16C246.604 30.04 246.137 31.3067 246.137 32.96V39C246.137 40.6533 246.604 41.9333 247.537 42.84C248.471 43.7467 249.724 44.2 251.297 44.2C252.791 44.2 253.964 43.8133 254.817 43.04C255.697 42.2667 256.177 41.1867 256.257 39.8H259.857C259.777 42.1467 258.964 44 257.417 45.36C255.871 46.72 253.831 47.4 251.297 47.4ZM271.122 47C269.229 47 267.749 46.4933 266.682 45.48C265.642 44.4667 265.122 43.04 265.122 41.2V28.28H258.922V25H265.122V18.8H268.722V25H277.522V28.28H268.722V41.2C268.722 42.88 269.522 43.72 271.122 43.72H277.122V47H271.122Z" fill="url(#paint0_linear_887_6)"/>
<rect width="64" height="64" rx="8" fill="url(#paint1_linear_887_6)"/>
<path d="M0 12.8C0 8.31958 0 6.07937 0.871948 4.36808C1.63893 2.86278 2.86278 1.63893 4.36808 0.871948C6.07937 0 8.31958 0 12.8 0H51.2C55.6804 0 57.9206 0 59.6319 0.871948C61.1372 1.63893 62.3611 2.86278 63.1281 4.36808C64 6.07937 64 8.31958 64 12.8V51.2C64 55.6804 64 57.9206 63.1281 59.6319C62.3611 61.1372 61.1372 62.3611 59.6319 63.1281C57.9206 64 55.6804 64 51.2 64H12.8C8.31958 64 6.07937 64 4.36808 63.1281C2.86278 62.3611 1.63893 61.1372 0.871948 59.6319C0 57.9206 0 55.6804 0 51.2V12.8Z" fill="url(#paint2_radial_887_6)" fill-opacity="0.5"/>
<g filter="url(#filter0_i_887_6)">
<path d="M16 33.1108C16 24.4585 23.3646 18.6043 32 19.144C40.6355 18.6043 48 24.4585 48 33.1108V34.144C48 42.4283 41.2843 49.144 33 49.144H31C22.7158 49.144 16 42.4283 16 34.144V33.1108Z" fill="url(#paint3_linear_887_6)"/>
<path fill-rule="evenodd" clip-rule="evenodd" d="M37 19.6439C37 19.6439 50 11.644 50.5 16.644C51 21.644 47 28.6439 47 28.6439L37 19.6439Z" fill="url(#paint4_linear_887_6)"/>
<path d="M14.0433 16.644C14.5433 11.644 27.5433 19.6439 27.5433 19.6439L17.5433 28.6439C17.5433 28.6439 13.5433 21.6439 14.0433 16.644Z" fill="url(#paint5_linear_887_6)"/>
</g>
<defs>
<filter id="filter0_i_887_6" x="14" y="15" width="36.5433" height="36.144" filterUnits="userSpaceOnUse" color-interpolation-filters="sRGB">
<feFlood flood-opacity="0" result="BackgroundImageFix"/>
<feBlend mode="normal" in="SourceGraphic" in2="BackgroundImageFix" result="shape"/>
<feColorMatrix in="SourceAlpha" type="matrix" values="0 0 0 0 0 0 0 0 0 0 0 0 0 0 0 0 0 0 127 0" result="hardAlpha"/>
<feOffset dy="2"/>
<feGaussianBlur stdDeviation="2"/>
<feComposite in2="hardAlpha" operator="arithmetic" k2="-1" k3="1"/>
<feColorMatrix type="matrix" values="0 0 0 0 0.211765 0 0 0 0 0.0745098 0 0 0 0 0.505882 0 0 0 0.75 0"/>
<feBlend mode="normal" in2="shape" result="effect1_innerShadow_887_6"/>
</filter>
<linearGradient id="paint0_linear_887_6" x1="172" y1="6" x2="172" y2="59" gradientUnits="userSpaceOnUse">
<stop offset="0.5" stop-color="white"/>
<stop offset="1" stop-color="#D494DE"/>
</linearGradient>
<linearGradient id="paint1_linear_887_6" x1="32" y1="9.53674e-07" x2="64" y2="64" gradientUnits="userSpaceOnUse">
<stop stop-color="#D4B5FF"/>
<stop offset="1" stop-color="#5022AA"/>
</linearGradient>
<radialGradient id="paint2_radial_887_6" cx="0" cy="0" r="1" gradientUnits="userSpaceOnUse" gradientTransform="translate(64 1.78255e-06) rotate(90) scale(64)">
<stop stop-color="#C0B5FF"/>
<stop offset="1" stop-color="#C0B5FF" stop-opacity="0"/>
</radialGradient>
<linearGradient id="paint3_linear_887_6" x1="32" y1="33.1441" x2="32" y2="64" gradientUnits="userSpaceOnUse">
<stop stop-color="#583C99"/>
<stop offset="0.8" stop-color="#9C4DD2"/>
</linearGradient>
<linearGradient id="paint4_linear_887_6" x1="32" y1="33.1441" x2="32" y2="64" gradientUnits="userSpaceOnUse">
<stop stop-color="#583C99"/>
<stop offset="0.8" stop-color="#9C4DD2"/>
</linearGradient>
<linearGradient id="paint5_linear_887_6" x1="32" y1="33.1441" x2="32" y2="64" gradientUnits="userSpaceOnUse">
<stop stop-color="#583C99"/>
<stop offset="0.8" stop-color="#9C4DD2"/>
</linearGradient>
</defs>
</svg>
