<svg width="64" height="64" viewBox="0 0 64 64" fill="none" xmlns="http://www.w3.org/2000/svg">
<rect width="64" height="64" rx="8" fill="url(#paint0_linear_889_37)"/>
<path d="M0 12.8C0 8.31958 0 6.07937 0.871948 4.36808C1.63893 2.86278 2.86278 1.63893 4.36808 0.871948C6.07937 0 8.31958 0 12.8 0H51.2C55.6804 0 57.9206 0 59.6319 0.871948C61.1372 1.63893 62.3611 2.86278 63.1281 4.36808C64 6.07937 64 8.31958 64 12.8V51.2C64 55.6804 64 57.9206 63.1281 59.6319C62.3611 61.1372 61.1372 62.3611 59.6319 63.1281C57.9206 64 55.6804 64 51.2 64H12.8C8.31958 64 6.07937 64 4.36808 63.1281C2.86278 62.3611 1.63893 61.1372 0.871948 59.6319C0 57.9206 0 55.6804 0 51.2V12.8Z" fill="url(#paint1_radial_889_37)" fill-opacity="0.5"/>
<g filter="url(#filter0_i_889_37)">
<path d="M16 33.1108C16 24.4585 23.3646 18.6043 32 19.144C40.6355 18.6043 48 24.4585 48 33.1108V34.144C48 42.4283 41.2843 49.144 33 49.144H31C22.7158 49.144 16 42.4283 16 34.144V33.1108Z" fill="url(#paint2_linear_889_37)"/>
<path fill-rule="evenodd" clip-rule="evenodd" d="M37 19.6439C37 19.6439 50 11.644 50.5 16.644C51 21.644 47 28.6439 47 28.6439L37 19.6439Z" fill="url(#paint3_linear_889_37)"/>
<path d="M14.0433 16.644C14.5433 11.644 27.5433 19.6439 27.5433 19.6439L17.5433 28.6439C17.5433 28.6439 13.5433 21.6439 14.0433 16.644Z" fill="url(#paint4_linear_889_37)"/>
</g>
<defs>
<filter id="filter0_i_889_37" x="14" y="15" width="36.5433" height="36.144" filterUnits="userSpaceOnUse" color-interpolation-filters="sRGB">
<feFlood flood-opacity="0" result="BackgroundImageFix"/>
<feBlend mode="normal" in="SourceGraphic" in2="BackgroundImageFix" result="shape"/>
<feColorMatrix in="SourceAlpha" type="matrix" values="0 0 0 0 0 0 0 0 0 0 0 0 0 0 0 0 0 0 127 0" result="hardAlpha"/>
<feOffset dy="2"/>
<feGaussianBlur stdDeviation="2"/>
<feComposite in2="hardAlpha" operator="arithmetic" k2="-1" k3="1"/>
<feColorMatrix type="matrix" values="0 0 0 0 0.211765 0 0 0 0 0.0745098 0 0 0 0 0.505882 0 0 0 0.75 0"/>
<feBlend mode="normal" in2="shape" result="effect1_innerShadow_889_37"/>
</filter>
<linearGradient id="paint0_linear_889_37" x1="32" y1="9.53674e-07" x2="64" y2="64" gradientUnits="userSpaceOnUse">
<stop stop-color="#D4B5FF"/>
<stop offset="1" stop-color="#5022AA"/>
</linearGradient>
<radialGradient id="paint1_radial_889_37" cx="0" cy="0" r="1" gradientUnits="userSpaceOnUse" gradientTransform="translate(64 1.78255e-06) rotate(90) scale(64)">
<stop stop-color="#C0B5FF"/>
<stop offset="1" stop-color="#C0B5FF" stop-opacity="0"/>
</radialGradient>
<linearGradient id="paint2_linear_889_37" x1="32" y1="33.1441" x2="32" y2="64" gradientUnits="userSpaceOnUse">
<stop stop-color="#583C99"/>
<stop offset="0.8" stop-color="#9C4DD2"/>
</linearGradient>
<linearGradient id="paint3_linear_889_37" x1="32" y1="33.1441" x2="32" y2="64" gradientUnits="userSpaceOnUse">
<stop stop-color="#583C99"/>
<stop offset="0.8" stop-color="#9C4DD2"/>
</linearGradient>
<linearGradient id="paint4_linear_889_37" x1="32" y1="33.1441" x2="32" y2="64" gradientUnits="userSpaceOnUse">
<stop stop-color="#583C99"/>
<stop offset="0.8" stop-color="#9C4DD2"/>
</linearGradient>
</defs>
</svg>
